<svg id="Layer_1" data-name="Layer 1" xmlns="http://www.w3.org/2000/svg" viewBox="0 0 290.95 114.34"><title>logo</title><path d="M38.15,26.53c-10.36.34-17.78-3.45-19.68-9.84-.52-1.56.17-2.42,1.9-2.25,15.36,1.21,44-5.18,53.86-4.83,7.25.17,13.81,2.07,16.4,8.8.52,1.39.18,2.77-2.07,2.59-8.46-.86-19.33.87-29.35,2.59.17,4.15-1,9.84-5.69,18.3-10.36,18.82-25,43-38.5,74.59-.69,1.72-1.56,1.72-2.77.51-2.41-2.24-4.48-7.42-2.24-15.71,4-14.15,22.62-51.62,38.67-76A89.2,89.2,0,0,1,38.15,26.53Z" transform="translate(-9.05 -9)" style="fill:#fff"/><path d="M91,53.46c2.07-1.38,3.45-1.73,4.66-.34,3.28,3.62,7.43,11.22,2.42,16.91-7.77,8.81-16.23,19.69-19,28.66s-.69,15.71,4.31,15.89c6.74.34,15-10.36,20.55-22.79.69-1.38,1.73-1.56,2.42-.18.86,1.9,1,6-.87,10.71-4,10-14,17.26-23.13,16.92-12.43-.52-17.44-11.91-13.12-24.86C73,83,83,70.73,89.94,62.78a37.49,37.49,0,0,1-20.19,6.56c-6.56,12.09-23.14,36.6-26.42,52.31-.34,1.56-1.38,2.42-2.93.87-5-5.18-5-13.12-.35-21.93C44,93,55.59,76.77,62,67.62c-9.84-6.39,5.18-26.76,11.56-26.93,5.36-.18,4,9.84-.34,20.71C78.72,60.71,84.59,58,91,53.46Z" transform="translate(-9.05 -9)" style="fill:#fff"/><path d="M177.3,113.37c8.12.51,20.2-11.74,26.76-24.86,1-2.25,2.94-2.42,3.63,0,.86,2.76,0,6.38-1.73,10.53-2.07,5-14.85,19.51-28.49,19-11.56-.52-18.12-8.46-14.15-26.93.51-2.42,1-4.49,1.72-6.74a29.31,29.31,0,0,1-4,.18,34.73,34.73,0,0,1-6-.52c-4.32,14-14.5,29.52-26.24,33.15-6.39,2.07-15.37,1.89-21.93-7.25C99.44,99.73,102,84.54,109.8,71.07c6.73-11.74,16.92-21.58,27.28-22.44,5.18-.52,8.28,1,11.73,5.69,4.15,5.53,9,6.56,8.12,19a49.91,49.91,0,0,1-.86,6.57,42.89,42.89,0,0,0,4.83.34c1.73,0,3.63,0,5.35-.17,8.29-26.07,25.21-52,40.57-68,2.42-2.59,5.18-3.11,7.43-.87,4.66,4.67,5.87,10.88,3.8,18.82-2.59,9.67-9.67,22.1-16.23,30.21-7.08,8.81-14.33,16.23-23.31,20.38C171.43,98,169.53,112.85,177.3,113.37Zm-44-51.79a57.69,57.69,0,0,0-13.47,16c-7.25,13-9.67,29-5.18,32.8,4.66,4,15.37-2.24,23.83-17.78a105.87,105.87,0,0,0,5.87-13.29C137.59,74.87,133.28,68,133.28,61.58Zm13.81-.35c-.86-5.52-4.32-4.49-5.18.52a15,15,0,0,0,3.8,12.43C147.09,68.83,147.61,64.34,147.09,61.23Zm52.65-7.08c7.6-11,14.51-26.24,12.26-27.79-1.9-1.21-15,17.43-26.76,39.53-1.38,2.59-2.59,5.18-3.62,7.42C189.73,67.79,196.12,59.33,199.74,54.15Z" transform="translate(-9.05 -9)" style="fill:#fff"/><path d="M216.67,113.37c8.28.69,20.37-11.74,27.1-25,1.21-2.24,3.11-2.41,3.8,0,.86,2.77.17,6.56-1.73,10.71-2.42,5.18-15,19.51-28.83,19.16-11.91-.34-18.3-8.63-14.33-27.28,6.39-30,26.07-61.28,43.68-79.58,2.59-2.77,5-3.11,7.42-.87,5,4.49,6,10.88,4,19-5.35,21.24-24.68,42-40.05,52C210.8,98.35,208.9,112.68,216.67,113.37Zm35.21-87.53c-2.24-1.38-15,17.78-26.93,39.88q-2.32,4.14-4.14,8.29C244.46,54.84,254.13,27.22,251.88,25.84Z" transform="translate(-9.05 -9)" style="fill:#fff"/><path d="M294.87,81.08c-3.62,14.68-14.5,32.12-27.27,36.43-6.22,2.07-14.85,1.38-21.76-7.59-7.59-10-5-25,2.76-38.85,6.56-11.74,17.1-21.75,27.45-22.44,5.36-.35,8.29,1.21,11.74,5.87,4,5.35,9.15,6.56,8.12,19-.17,1.38-.17,2.59-.35,4,1,0,2.08-.35,3.46-.35,1.2,0,1.2.87.51,1.73A7,7,0,0,1,294.87,81.08ZM280.2,76.77c-3.63-2.76-7.77-8.81-7.94-15.19A60.46,60.46,0,0,0,259,77.8c-7.25,13.12-9.84,29-5.35,32.81,4.83,4,15.37-2.08,23.83-18a90.89,90.89,0,0,0,6-13.81A13.14,13.14,0,0,1,280.2,76.77Zm5.87-15.37c-.87-5.52-4.32-4.49-5.18.52a14.19,14.19,0,0,0,3.8,12.26C286.07,68.83,286.59,64.51,286.07,61.4Z" transform="translate(-9.05 -9)" style="fill:#fff"/></svg>